<?xml version="1.0" encoding="UTF-8"?>
<svg id="Layer_2" xmlns="http://www.w3.org/2000/svg" viewBox="0 0 240 240">
  <defs>
    <style>
      .cls-1 {
        fill: #fff;
      }

      .cls-2 {
        fill: #66cbff;
      }
    </style>
  </defs>
  <g id="Layer_1-2" data-name="Layer_1">
    <g>
      <path class="cls-1" d="M171.18,238.5C77.62,238.5,1.5,162.38,1.5,68.83V1.5h237v184.68c0,28.85-23.47,52.32-52.32,52.32h-15Z"/>
      <path class="cls-2" d="M237,3v183.18c0,28.02-22.8,50.82-50.82,50.82h-15c-44.92,0-87.15-17.49-118.92-49.26C20.49,155.98,3,113.75,3,68.82V3h234M240,0H0v68.82c0,94.54,76.64,171.18,171.18,171.18h15c29.73,0,53.82-24.1,53.82-53.82V0h0Z"/>
    </g>
  </g>
</svg>