<?xml version="1.0" encoding="UTF-8"?>
<svg id="Layer_2" xmlns="http://www.w3.org/2000/svg" viewBox="0 0 240 240">
  <defs>
    <style>
      .cls-1 {
        fill: #ff92ac;
      }

      .cls-2 {
        fill: #fff;
      }
    </style>
  </defs>
  <g id="Layer_1-2" data-name="Layer_1">
    <g>
      <path class="cls-2" d="M1.5,238.5v-67.33C1.5,77.62,77.62,1.5,171.18,1.5h15c28.85,0,52.32,23.47,52.32,52.32v184.68H1.5Z"/>
      <path class="cls-1" d="M186.18,3c28.02,0,50.82,22.8,50.82,50.82v183.18H3v-65.82c0-44.92,17.49-87.15,49.26-118.92C84.02,20.49,126.25,3,171.18,3h15M186.18,0h-15C76.64,0,0,76.64,0,171.18v68.82h240V53.82c0-29.73-24.1-53.82-53.82-53.82h0Z"/>
    </g>
  </g>
</svg>