<?xml version="1.0" encoding="UTF-8"?>
<svg id="Layer_2" xmlns="http://www.w3.org/2000/svg" viewBox="0 0 290.03 290.03">
  <defs>
    <style>
      .cls-1 {
        fill: none;
        stroke: #66cbff;
        stroke-miterlimit: 10;
      }

      .cls-2 {
        fill: #fff;
      }

      .cls-3, .cls-4 {
        fill: #66cbff;
      }

      .cls-4 {
        opacity: .5;
      }
    </style>
  </defs>
  <g id="Layer_4">
    <g>
      <g>
        <path class="cls-4" d="M280.03,212.52v67.51l-39.54-39.54c8.34-8.34,15.61-17.74,21.58-27.97h17.96Z"/>
        <path class="cls-4" d="M280.03,156.15v56.37h-17.96c9.87-16.88,16.2-36.02,17.96-56.37Z"/>
        <path class="cls-4" d="M280.03,77.51v55.41c-1.72-20.04-7.87-38.84-17.46-55.41h17.46Z"/>
        <path class="cls-4" d="M280.03,10v67.51h-17.46c-5.99-10.37-13.33-19.87-21.77-28.27l39.23-39.24Z"/>
        <path class="cls-4" d="M280.03,10l-39.23,39.24c-8.41-8.38-17.92-15.66-28.28-21.6V10h67.51Z"/>
        <polygon class="cls-3" points="280.03 145.01 212.52 212.52 212.52 145.01 280.03 145.01"/>
        <path class="cls-4" d="M280.03,280.03h-67.51v-17.96c10.23-5.97,19.63-13.24,27.97-21.58l39.54,39.54Z"/>
        <path class="cls-4" d="M262.57,77.51h-50.04l28.27-28.27c8.44,8.4,15.78,17.9,21.77,28.27Z"/>
        <path class="cls-4" d="M212.52,212.52h49.55c-5.97,10.23-13.24,19.63-21.58,27.97l-27.97-27.97Z"/>
        <path class="cls-4" d="M240.8,49.24l-28.27,28.27h-.01V27.64c10.36,5.94,19.87,13.22,28.28,21.6Z"/>
        <path class="cls-4" d="M212.52,212.52l27.97,27.97c-8.34,8.34-17.74,15.61-27.97,21.58v-49.55Z"/>
        <path class="cls-4" d="M212.52,262.07v17.96h-56.37c20.35-1.76,39.49-8.09,56.37-17.96Z"/>
        <polygon class="cls-3" points="212.52 145.01 212.52 212.52 145.02 145.02 145.02 145.01 212.52 145.01"/>
        <path class="cls-4" d="M212.52,10v17.64c-17.11-9.84-36.54-16.07-57.24-17.64h57.24Z"/>
        <polygon class="cls-3" points="145.01 10 212.52 77.51 145.01 77.51 145.01 10"/>
        <polygon class="cls-3" points="212.52 77.51 145.02 145.01 145.01 145.01 145.01 77.51 212.52 77.51"/>
        <polygon class="cls-3" points="145.01 212.52 145.01 280.03 77.51 212.53 77.51 212.52 145.01 212.52"/>
        <polygon class="cls-3" points="145.01 145.02 145.01 212.52 77.51 212.52 145.01 145.02"/>
        <polygon class="cls-3" points="145.01 145.01 77.51 145.01 77.51 77.51 145.01 145.01"/>
        <path class="cls-4" d="M77.51,10h56.99c-20.61,1.57-39.96,7.75-56.99,17.53V10Z"/>
        <path class="cls-4" d="M132.92,280.03h-55.41v-17.54c16.58,9.63,35.37,15.81,55.41,17.54Z"/>
        <path class="cls-4" d="M77.51,262.49v17.54H10l39.31-39.3c8.38,8.43,17.86,15.77,28.2,21.76Z"/>
        <path class="cls-4" d="M77.51,212.53v49.96c-10.34-5.99-19.82-13.33-28.2-21.76l28.2-28.2Z"/>
        <polygon class="cls-3" points="77.51 77.51 77.51 145.01 10 145.01 77.5 77.51 77.51 77.51"/>
        <path class="cls-4" d="M77.51,27.53v49.97h0s-.01.01-.01.01l-28.32-28.33c8.42-8.4,17.94-15.69,28.33-21.65Z"/>
        <path class="cls-4" d="M77.51,10v17.53c-10.39,5.96-19.91,13.25-28.33,21.65L10,10h67.51Z"/>
        <path class="cls-4" d="M77.51,212.52h0s-28.2,28.21-28.2,28.21c-8.36-8.39-15.63-17.87-21.58-28.21h49.78Z"/>
        <path class="cls-4" d="M49.18,49.18l28.32,28.33H27.42c5.98-10.4,13.32-19.92,21.76-28.33Z"/>
        <path class="cls-4" d="M49.31,240.73l-39.31,39.3v-67.51h17.73c5.95,10.34,13.22,19.82,21.58,28.21Z"/>
        <path class="cls-4" d="M10,10l39.18,39.18c-8.44,8.41-15.78,17.93-21.76,28.33H10V10Z"/>
        <path class="cls-4" d="M27.73,212.52H10v-56.62c1.7,20.45,7.95,39.67,17.73,56.62Z"/>
        <path class="cls-4" d="M10,77.51h17.42c-9.61,16.68-15.75,35.6-17.42,55.78v-55.78Z"/>
      </g>
      <g>
        <polyline class="cls-1" points="212.52 77.51 145.01 10 77.51 77.5"/>
        <polyline class="cls-1" points="77.51 212.53 145.01 280.03 212.52 212.52 280.03 145.01 212.53 77.51"/>
        <polyline class="cls-1" points="77.5 77.51 10 145.01 77.51 212.52"/>
        <polyline class="cls-1" points="145.02 145.02 212.52 212.52 240.49 240.49 280.03 280.03"/>
        <line class="cls-1" x1="77.51" y1="77.51" x2="145.01" y2="145.01"/>
        <polyline class="cls-1" points="10 10 49.18 49.18 77.5 77.51"/>
        <polyline class="cls-1" points="77.51 212.53 49.31 240.73 10 280.03"/>
        <polyline class="cls-1" points="212.52 77.51 145.02 145.01 145.02 145.02 145.01 145.02 77.51 212.52"/>
        <polyline class="cls-1" points="280.03 10 240.8 49.24 212.53 77.51"/>
        <polyline class="cls-1" points="10 77.51 27.42 77.51 77.5 77.51 77.51 77.51 145.01 77.51 212.52 77.51 212.53 77.51 262.57 77.51 280.03 77.51"/>
        <polyline class="cls-1" points="10 212.52 27.73 212.52 77.51 212.52 145.01 212.52 212.52 212.52 262.07 212.52 280.03 212.52"/>
        <polyline class="cls-1" points="77.51 280.03 77.51 262.49 77.51 212.53 77.51 212.52 77.51 145.01 77.51 77.51 77.51 77.5 77.51 27.53 77.51 10"/>
        <polyline class="cls-1" points="212.52 10 212.52 27.64 212.52 77.51 212.52 145.01 212.52 212.52 212.52 262.07 212.52 280.03"/>
        <polyline class="cls-1" points="280.03 145.01 212.52 145.01 145.02 145.01 145.01 145.01 77.51 145.01 10 145.01"/>
        <polyline class="cls-1" points="145.01 10 145.01 77.51 145.01 145.01 145.01 145.02 145.01 212.52 145.01 280.03"/>
        <path class="cls-1" d="M156.15,280.03c20.35-1.76,39.49-8.09,56.37-17.96,10.23-5.97,19.63-13.24,27.97-21.58,8.34-8.34,15.61-17.74,21.58-27.97,9.87-16.88,16.2-36.02,17.96-56.37.33-3.83.5-7.71.5-11.62s-.17-7.78-.5-11.61c-1.72-20.04-7.87-38.84-17.46-55.41-5.99-10.37-13.33-19.87-21.77-28.27-8.41-8.38-17.92-15.66-28.28-21.6-17.11-9.84-36.54-16.07-57.24-17.64"/>
        <path class="cls-1" d="M155.27,10c-3.43-.26-6.89-.39-10.38-.39s-6.96.13-10.39.39c-20.61,1.57-39.96,7.75-56.99,17.53-10.39,5.96-19.91,13.25-28.33,21.65-8.44,8.41-15.78,17.93-21.76,28.33-9.61,16.68-15.75,35.6-17.42,55.78-.31,3.71-.47,7.46-.47,11.24s.16,7.62.47,11.37c1.7,20.45,7.95,39.67,17.73,56.62,5.95,10.34,13.22,19.82,21.58,28.21,8.38,8.43,17.86,15.77,28.2,21.76,16.58,9.63,35.37,15.81,55.41,17.54,3.83.33,7.7.5,11.61.5s7.78-.17,11.61-.5"/>
        <path class="cls-2" d="M280.03,10v270.03H10V10h270.03M280.03,0H10C4.48,0,0,4.48,0,10v270.03c0,5.52,4.48,10,10,10h270.03c5.52,0,10-4.48,10-10V10c0-5.52-4.48-10-10-10h0Z"/>
      </g>
    </g>
  </g>
</svg>