<?xml version="1.0" encoding="UTF-8"?>
<svg id="Layer_2" xmlns="http://www.w3.org/2000/svg" viewBox="0 0 318.32 318.32">
  <defs>
    <style>
      .cls-1 {
        fill: #fff;
      }

      .cls-2, .cls-3 {
        fill: #66cbff;
      }

      .cls-3 {
        stroke: #fff;
        stroke-miterlimit: 10;
        stroke-width: 10px;
      }

      .cls-4 {
        opacity: .5;
      }
    </style>
  </defs>
  <g id="Layer_4">
    <g>
      <g>
        <g class="cls-4">
          <path class="cls-2" d="M247.57,254.64l3.54-3.54c8.07-8.07,15.07-17.14,20.8-26.96l1.45-2.48h25.83v84.58l-51.61-51.61Z"/>
          <path class="cls-1" d="M294.18,226.67v67.51l-39.54-39.54c8.34-8.34,15.61-17.74,21.58-27.97h17.96M304.18,216.67h-33.7l-2.89,4.96c-5.51,9.44-12.24,18.17-20.01,25.94l-7.07,7.07,7.07,7.07,39.54,39.54,17.07,17.07v-101.65h0Z"/>
        </g>
        <g class="cls-4">
          <path class="cls-2" d="M267.5,231.67l4.4-7.52c9.81-16.78,15.63-35.04,17.29-54.28l9.98.43v61.37h-31.68Z"/>
          <path class="cls-1" d="M294.18,170.3v56.37h-17.96c9.87-16.88,16.2-36.02,17.96-56.37M284.21,169.43c-1.6,18.49-7.19,36.05-16.63,52.18l-8.8,15.05h45.39v-66.37l-19.96-.86h0Z"/>
        </g>
        <g class="cls-4">
          <path class="cls-2" d="M289.2,147.49c-1.63-18.93-7.28-36.87-16.81-53.33l-4.34-7.5h31.13v60.41l-9.98.43Z"/>
          <path class="cls-1" d="M294.18,91.66v55.41c-1.72-20.04-7.87-38.84-17.46-55.41h17.46M304.18,81.66h-44.8l8.69,15.01c9.16,15.82,14.59,33.07,16.15,51.26l19.96-.86v-65.41h0Z"/>
        </g>
        <g class="cls-4">
          <path class="cls-2" d="M273.83,96.66l-1.44-2.5c-5.73-9.93-12.79-19.09-20.97-27.23l-3.55-3.54,51.31-51.32v84.58h-25.35Z"/>
          <path class="cls-1" d="M294.18,24.15v67.51h-17.46c-5.99-10.37-13.33-19.87-21.77-28.27l39.23-39.24M304.18,0l-17.07,17.08-39.23,39.24-7.09,7.09,7.1,7.07c7.87,7.83,14.65,16.64,20.17,26.18l2.89,5h33.23V0h0Z"/>
        </g>
        <g class="cls-4">
          <path class="cls-2" d="M251.42,66.93c-8.14-8.11-17.3-15.11-27.24-20.8l-2.51-1.44v-25.54h84.58l-51.29,51.3-3.54-3.52Z"/>
          <path class="cls-1" d="M294.18,24.15l-39.23,39.24c-8.41-8.38-17.92-15.66-28.28-21.6v-17.64h67.51M318.31,14.15h-101.65v33.43l5.03,2.88c9.56,5.48,18.37,12.21,26.2,20.01l7.07,7.05,7.06-7.06,39.23-39.24,17.07-17.07h0Z"/>
        </g>
        <g>
          <polygon class="cls-2" points="221.67 154.16 306.25 154.16 221.67 238.74 221.67 154.16"/>
          <path class="cls-1" d="M294.18,159.16l-67.51,67.51v-67.51h67.51M318.32,149.16h-101.65v101.65l17.07-17.07,67.51-67.51,17.07-17.07h0Z"/>
        </g>
        <g class="cls-4">
          <path class="cls-2" d="M221.67,299.18v-25.83l2.48-1.45c9.81-5.73,18.88-12.73,26.96-20.8l3.54-3.54,51.61,51.61h-84.58Z"/>
          <path class="cls-1" d="M254.64,254.64l39.54,39.54h-67.51v-17.96c10.23-5.97,19.63-13.24,27.97-21.58M254.64,240.49l-7.07,7.07c-7.77,7.77-16.5,14.5-25.94,20.01l-4.96,2.89v33.7h101.65l-17.07-17.07-39.54-39.54-7.07-7.07h0Z"/>
        </g>
        <g class="cls-4">
          <path class="cls-2" d="M214.61,96.66l40.33-40.33,3.54,3.52c8.8,8.76,16.4,18.62,22.57,29.31l4.33,7.5h-70.77Z"/>
          <path class="cls-1" d="M254.95,63.39c8.44,8.4,15.78,17.9,21.77,28.27h-50.04l28.27-28.27M254.93,49.26l-7.05,7.05-28.27,28.27-17.07,17.07h91.51l-8.67-15c-6.39-11.07-14.26-21.28-23.38-30.36l-7.07-7.04h0Z"/>
        </g>
        <g class="cls-4">
          <path class="cls-2" d="M214.6,221.67h70.33l-4.39,7.52c-6.16,10.55-13.68,20.31-22.36,28.99l-3.54,3.54-40.04-40.04Z"/>
          <path class="cls-1" d="M276.22,226.67c-5.97,10.23-13.24,19.63-21.58,27.97l-27.97-27.97h49.55M293.63,216.67h-91.11l17.07,17.07,27.97,27.97,7.07,7.07,7.07-7.07c8.98-8.98,16.77-19.08,23.15-30l8.78-15.04h0Z"/>
        </g>
        <g class="cls-4">
          <path class="cls-2" d="M221.67,96.66v-63.5l7.49,4.29c10.7,6.13,20.56,13.67,29.32,22.4l3.55,3.54-33.28,33.28h-7.08Z"/>
          <path class="cls-1" d="M226.67,41.79c10.36,5.94,19.87,13.22,28.28,21.6l-28.27,28.27h-.01v-49.87M216.67,24.53v77.13h14.14l2.94-2.93,28.27-28.27,7.08-7.08-7.1-7.07c-9.07-9.04-19.28-16.84-30.36-23.19l-14.97-8.59h0Z"/>
        </g>
        <g class="cls-4">
          <path class="cls-2" d="M221.67,214.59l40.04,40.04-3.54,3.54c-8.68,8.68-18.43,16.2-28.98,22.36l-7.52,4.39v-70.33Z"/>
          <path class="cls-1" d="M226.67,226.67l27.97,27.97c-8.34,8.34-17.74,15.61-27.97,21.58v-49.55M216.67,202.52v91.11l15.04-8.78c10.92-6.37,21.02-14.16,30-23.15l7.07-7.07-7.07-7.07-27.97-27.97-17.07-17.07h0Z"/>
        </g>
        <g class="cls-4">
          <path class="cls-2" d="M170.3,299.18l-.43-9.98c19.23-1.66,37.49-7.48,54.28-17.29l7.52-4.4v31.67h-61.37Z"/>
          <path class="cls-1" d="M226.67,276.22v17.96h-56.37c20.35-1.76,39.49-8.09,56.37-17.96M236.67,258.79l-15.05,8.8c-16.14,9.44-33.69,15.03-52.18,16.63l.86,19.96h66.37v-45.39h0Z"/>
        </g>
        <g>
          <polygon class="cls-2" points="154.17 161.24 154.17 154.17 159.17 154.16 231.67 154.16 231.67 238.74 154.17 161.24"/>
          <path class="cls-1" d="M226.67,159.16v67.51l-67.5-67.5h0s67.5-.01,67.5-.01M236.67,149.16h-87.5v14.14l2.93,2.94,67.5,67.5,17.07,17.07v-101.65h0Z"/>
        </g>
        <g class="cls-4">
          <path class="cls-2" d="M224.17,46.12c-17.02-9.79-35.57-15.51-55.12-16.99l.38-9.99h62.24v31.28l-7.49-4.31Z"/>
          <path class="cls-1" d="M226.67,24.15v17.64c-17.11-9.84-36.54-16.07-57.24-17.64h57.24M236.67,14.15h-67.24l-.76,19.97c18.81,1.43,36.64,6.92,53.01,16.34l14.99,8.62V14.15h0Z"/>
        </g>
        <g>
          <polygon class="cls-2" points="154.16 96.66 154.16 12.08 238.74 96.66 154.16 96.66"/>
          <path class="cls-1" d="M159.16,24.15l67.51,67.51h-67.51V24.15M149.16,0v101.65h101.65l-17.07-17.07L166.23,17.08,149.16,0h0Z"/>
        </g>
        <g>
          <polygon class="cls-2" points="154.16 164.16 154.16 86.66 238.74 86.66 161.24 164.16 154.16 164.16"/>
          <path class="cls-1" d="M226.67,91.66l-67.5,67.5h-.01v-67.5h67.51M250.81,81.66h-101.65v87.5h14.14l2.94-2.93,67.5-67.5,17.07-17.07h0Z"/>
        </g>
        <g>
          <polygon class="cls-2" points="86.66 228.75 86.66 221.68 91.66 221.67 164.16 221.67 164.16 306.25 86.66 228.75"/>
          <path class="cls-1" d="M159.16,226.67v67.51l-67.5-67.5h0s67.5-.01,67.5-.01M169.16,216.67h-87.5v14.14l2.93,2.94,67.5,67.5,17.07,17.07v-101.65h0Z"/>
        </g>
        <g>
          <polygon class="cls-2" points="79.58 231.67 164.16 147.1 164.16 231.67 79.58 231.67"/>
          <path class="cls-1" d="M159.16,159.17v67.5h-67.5l67.5-67.5M169.16,135.02l-17.07,17.07-67.5,67.5-17.07,17.07h101.64v-101.64h0Z"/>
        </g>
        <g>
          <polygon class="cls-2" points="86.66 164.16 86.66 79.59 171.23 164.16 86.66 164.16"/>
          <path class="cls-1" d="M91.66,91.66l67.5,67.5h-67.5v-67.5M81.66,67.51v101.64h101.64l-17.07-17.07-67.5-67.5-17.07-17.07h0Z"/>
        </g>
        <g class="cls-4">
          <path class="cls-2" d="M86.66,19.15h61.99l.38,9.99c-19.5,1.49-37.96,7.16-54.88,16.88l-7.49,4.3v-31.17Z"/>
          <path class="cls-1" d="M148.65,24.15c-20.61,1.57-39.96,7.75-56.99,17.53v-17.53h56.99M148.65,14.15h-66.99v44.8l14.98-8.6c16.27-9.34,34.02-14.8,52.77-16.23l-.76-19.97h0Z"/>
        </g>
        <g class="cls-4">
          <path class="cls-2" d="M86.66,299.18v-31.23l7.51,4.36c16.48,9.57,34.42,15.25,53.33,16.88l-.43,9.98h-60.41Z"/>
          <path class="cls-1" d="M91.66,276.64c16.58,9.63,35.37,15.81,55.41,17.54h-55.41v-17.54M81.66,259.26v44.91h65.41l.86-19.96c-18.17-1.57-35.41-7.03-51.25-16.22l-15.02-8.73h0Z"/>
        </g>
        <g class="cls-4">
          <path class="cls-2" d="M12.07,299.18l51.39-51.38,3.54,3.56c8.13,8.17,17.26,15.23,27.16,20.96l2.49,1.44v25.42H12.07Z"/>
          <path class="cls-1" d="M63.46,254.88c8.38,8.43,17.86,15.77,28.2,21.76v17.54H24.15l39.31-39.3M63.48,240.71l-7.09,7.09-39.31,39.3L0,304.18h101.66v-33.3l-4.99-2.89c-9.52-5.51-18.31-12.29-26.12-20.16l-7.07-7.11h0Z"/>
        </g>
        <g class="cls-4">
          <path class="cls-2" d="M89.15,280.96c-10.66-6.17-20.49-13.76-29.24-22.56l-3.51-3.54,40.26-40.26v70.71l-7.51-4.35Z"/>
          <path class="cls-1" d="M91.66,226.68v49.96c-10.34-5.99-19.82-13.33-28.2-21.76l28.2-28.2M101.66,202.53l-17.07,17.07-28.2,28.2-7.05,7.05,7.03,7.07c9.05,9.11,19.24,16.97,30.28,23.36l15.01,8.7v-91.45h0Z"/>
        </g>
        <g>
          <polygon class="cls-2" points="12.08 164.16 89.58 86.66 96.65 86.66 96.66 91.66 96.66 164.16 12.08 164.16"/>
          <path class="cls-1" d="M91.66,91.66v67.5H24.15l67.5-67.5h.01M101.66,81.66h-14.15l-2.93,2.93L17.08,152.09,0,169.16h101.65v-87.5h0Z"/>
        </g>
        <g class="cls-4">
          <path class="cls-2" d="M89.58,96.66l-33.32-33.33,3.54-3.53c8.76-8.74,18.64-16.29,29.37-22.45l7.49-4.3v63.6h-5s-2.08,0-2.08,0Z"/>
          <path class="cls-1" d="M91.66,41.68v49.97h0s-.01.01-.01.01l-28.32-28.33c8.42-8.4,17.94-15.69,28.33-21.65M101.66,24.41l-14.98,8.59c-11.11,6.37-21.34,14.19-30.42,23.24l-7.09,7.07,7.08,7.08,28.32,28.33,2.93,2.93h14.14v-10s.01-49.98.01-49.98v-17.26h0Z"/>
        </g>
        <g class="cls-4">
          <path class="cls-2" d="M12.08,19.15h84.58v25.43l-2.51,1.44c-9.97,5.72-19.15,12.73-27.29,20.85l-3.54,3.53L12.08,19.15Z"/>
          <path class="cls-1" d="M91.66,24.15v17.53c-10.39,5.96-19.91,13.25-28.33,21.65L24.15,24.15h67.51M101.66,14.15H0l17.07,17.07,39.18,39.18,7.06,7.06,7.07-7.05c7.83-7.81,16.66-14.56,26.24-20.06l5.02-2.88V14.15h0Z"/>
        </g>
        <g class="cls-4">
          <path class="cls-2" d="M59.91,258.41c-8.71-8.74-16.23-18.58-22.37-29.25l-4.31-7.49h63.42v7.07l-1.46,1.47-31.74,31.74-3.54-3.55Z"/>
          <path class="cls-1" d="M91.66,226.67h0s-28.2,28.21-28.2,28.21c-8.36-8.39-15.63-17.87-21.58-28.21h49.78M91.66,216.67H24.58l8.62,14.99c6.36,11.05,14.15,21.24,23.16,30.28l7.07,7.1,7.08-7.08,28.2-28.2,2.93-2.93v-14.14h-10Z"/>
        </g>
        <g class="cls-4">
          <path class="cls-2" d="M32.92,96.66l4.31-7.49c6.16-10.71,13.75-20.6,22.56-29.38l3.54-3.52,40.38,40.4H32.92Z"/>
          <path class="cls-1" d="M63.33,63.33l28.32,28.33h-50.08c5.98-10.4,13.32-19.92,21.76-28.33M63.34,49.2l-7.07,7.05c-9.13,9.09-16.99,19.33-23.37,30.43l-8.62,14.98h91.5l-17.06-17.07-28.32-28.33-7.06-7.06h0Z"/>
        </g>
        <g class="cls-4">
          <path class="cls-2" d="M19.15,221.67h25.62l1.44,2.51c5.7,9.91,12.7,19.05,20.79,27.17l3.52,3.54-51.38,51.36v-84.58Z"/>
          <path class="cls-1" d="M41.88,226.67c5.95,10.34,13.22,19.82,21.58,28.21l-39.31,39.3v-67.51h17.73M47.66,216.67H14.15v101.65l17.07-17.07,39.31-39.3,7.06-7.06-7.05-7.07c-7.78-7.81-14.51-16.6-20-26.14l-2.88-5.01h0Z"/>
        </g>
        <g class="cls-4">
          <path class="cls-2" d="M19.15,96.66V12.08l51.26,51.26-3.55,3.54c-8.19,8.16-15.24,17.34-20.96,27.28l-1.44,2.51h-25.31Z"/>
          <path class="cls-1" d="M24.15,24.15l39.18,39.18c-8.44,8.41-15.78,17.93-21.76,28.33h-17.42V24.15M14.15,0v101.65h33.21l2.88-5.02c5.5-9.56,12.28-18.39,20.15-26.23l7.1-7.07-7.08-7.08L31.22,17.08,14.15,0h0Z"/>
        </g>
        <g class="cls-4">
          <path class="cls-2" d="M19.15,231.67v-61.62l9.98-.41c1.61,19.33,7.35,37.68,17.08,54.53l4.33,7.5h-31.39Z"/>
          <path class="cls-1" d="M24.15,170.05c1.7,20.45,7.95,39.67,17.73,56.62h-17.73v-56.62M34.11,169.22l-19.97.83v66.62h45.05l-8.65-15c-9.35-16.21-14.88-33.86-16.43-52.45h0Z"/>
        </g>
        <g class="cls-4">
          <path class="cls-2" d="M19.15,147.44v-60.78h31.07l-4.32,7.5c-9.55,16.58-15.19,34.64-16.77,53.7l-9.98-.41Z"/>
          <path class="cls-1" d="M41.57,91.66c-9.61,16.68-15.75,35.6-17.42,55.78v-55.78h17.42M58.87,81.66H14.15v65.78l19.97.82c1.52-18.31,6.94-35.68,16.12-51.61l8.64-14.99h0Z"/>
        </g>
      </g>
      <g>
        <polyline class="cls-3" points="226.67 91.66 159.16 24.15 91.66 91.65"/>
        <polyline class="cls-3" points="91.66 226.68 159.16 294.18 226.67 226.67 294.18 159.16 226.68 91.66"/>
        <polyline class="cls-3" points="91.65 91.66 24.15 159.16 91.66 226.67"/>
        <polyline class="cls-3" points="159.17 159.17 226.67 226.67 254.64 254.64 294.18 294.18"/>
        <line class="cls-3" x1="91.66" y1="91.66" x2="159.16" y2="159.16"/>
        <polyline class="cls-3" points="24.15 24.15 63.33 63.33 91.65 91.66"/>
        <polyline class="cls-3" points="91.66 226.68 63.46 254.88 24.15 294.18"/>
        <polyline class="cls-3" points="226.67 91.66 159.17 159.16 159.17 159.17 159.16 159.17 91.66 226.67"/>
        <polyline class="cls-3" points="294.18 24.15 254.95 63.39 226.68 91.66"/>
        <polyline class="cls-3" points="24.15 91.66 41.57 91.66 91.65 91.66 91.66 91.66 159.16 91.66 226.67 91.66 226.68 91.66 276.72 91.66 294.18 91.66"/>
        <polyline class="cls-3" points="24.15 226.67 41.88 226.67 91.66 226.67 159.16 226.67 226.67 226.67 276.22 226.67 294.18 226.67"/>
        <polyline class="cls-3" points="91.66 294.18 91.66 276.64 91.66 226.68 91.66 226.67 91.66 159.16 91.66 91.66 91.66 91.65 91.66 41.68 91.66 24.15"/>
        <polyline class="cls-3" points="226.67 24.15 226.67 41.79 226.67 91.66 226.67 159.16 226.67 226.67 226.67 276.22 226.67 294.18"/>
        <polyline class="cls-3" points="294.18 159.16 226.67 159.16 159.17 159.16 159.16 159.16 91.66 159.16 24.15 159.16"/>
        <polyline class="cls-3" points="159.16 24.15 159.16 91.66 159.16 159.16 159.16 159.17 159.16 226.67 159.16 294.18"/>
        <path class="cls-3" d="M170.3,294.18c20.35-1.76,39.49-8.09,56.37-17.96,10.23-5.97,19.63-13.24,27.97-21.58,8.34-8.34,15.61-17.74,21.58-27.97,9.87-16.88,16.2-36.02,17.96-56.37.33-3.83.5-7.71.5-11.62s-.17-7.78-.5-11.61c-1.72-20.04-7.87-38.84-17.46-55.41-5.99-10.37-13.33-19.87-21.77-28.27-8.41-8.38-17.92-15.66-28.28-21.6-17.11-9.84-36.54-16.07-57.24-17.64"/>
        <path class="cls-3" d="M169.42,24.15c-3.43-.26-6.89-.39-10.38-.39s-6.96.13-10.39.39c-20.61,1.57-39.96,7.75-56.99,17.53-10.39,5.96-19.91,13.25-28.33,21.65-8.44,8.41-15.78,17.93-21.76,28.33-9.61,16.68-15.75,35.6-17.42,55.78-.31,3.71-.47,7.46-.47,11.24s.16,7.62.47,11.37c1.7,20.45,7.95,39.67,17.73,56.62,5.95,10.34,13.22,19.82,21.58,28.21,8.38,8.43,17.86,15.77,28.2,21.76,16.58,9.63,35.37,15.81,55.41,17.54,3.83.33,7.7.5,11.61.5s7.78-.17,11.61-.5"/>
        <g>
          <rect class="cls-2" x="19.15" y="19.15" width="280.03" height="280.03"/>
          <path class="cls-1" d="M294.18,24.15v270.03H24.15V24.15h270.03M304.18,14.15H14.15v290.03h290.03V14.15h0Z"/>
        </g>
      </g>
    </g>
  </g>
</svg>