<?xml version="1.0" encoding="UTF-8"?>
<svg id="Layer_2" xmlns="http://www.w3.org/2000/svg" viewBox="0 0 2616.64 1743.67">
  <defs>
    <style>
      .cls-1 {
        opacity: .25;
      }

      .cls-2 {
        fill: none;
        stroke: #50ffb4;
        stroke-miterlimit: 10;
        stroke-width: 3px;
      }
    </style>
  </defs>
  <g id="Layer_2-2" data-name="Layer_2">
    <g class="cls-1">
      <g>
        <path class="cls-2" d="M0,1.5c597.13,1.4,1194.26,2.79,1791.38,4.19,188.06.44,376.13.88,564.19,1.32"/>
        <path class="cls-2" d="M.1,41.85c597.13,1.4,1194.26,2.79,1791.38,4.19,188.06.44,376.13.88,564.19,1.32"/>
        <path class="cls-2" d="M.19,82.2c597.13,1.4,1194.26,2.79,1791.38,4.19,188.06.44,376.13.88,564.19,1.32"/>
        <path class="cls-2" d="M.29,122.56c597.13,1.4,1194.26,2.79,1791.38,4.19,188.06.44,376.13.88,564.19,1.32"/>
        <path class="cls-2" d="M.38,162.91c597.13,1.4,1194.26,2.79,1791.38,4.19,188.06.44,376.13.88,564.19,1.32"/>
        <path class="cls-2" d="M.48,203.26c597.13,1.4,1194.26,2.79,1791.38,4.19,188.06.44,376.13.88,564.19,1.32"/>
        <path class="cls-2" d="M.57,243.61c597.13,1.4,1194.26,2.79,1791.38,4.19,188.06.44,376.13.88,564.19,1.32"/>
        <path class="cls-2" d="M.66,283.97c597.13,1.4,1194.26,2.79,1791.38,4.19,188.06.44,376.13.88,564.19,1.32"/>
        <path class="cls-2" d="M.76,324.32c168.54.39,337.17,2.44,505.7,1.12,146.14-1.14,292.55,1.05,438.63-2.67,283.4-7.22,566.77,2.33,850.23-.82,89.03-.99,178.39-2.83,267.4-.64,97.92,2.42,195.53,10.91,293.55,8.63"/>
        <path class="cls-2" d="M.85,364.67c168.09.39,336.83,5.09,504.85-.32,72.62-2.34,145.17-6.85,217.83-7.82,72.86-.98,144.92-.34,217.66-6.09,138.94-10.98,275.47-14.23,414.78-7.95,149.62,6.74,298.18,6.52,447.86,1.54,89.71-2.99,181.05-8.21,270.61-.56,94.36,8.05,186.77,28.45,281.91,26.83"/>
        <path class="cls-2" d="M.95,405.02c167.22.39,336.5,8.35,503.42-2.72,71.15-4.72,142.07-12.8,213.35-15.37,73.5-2.66,144.89-3.83,217.9-14.56,69.15-10.16,138.27-22.83,208.29-24.94,70.24-2.11,140.57,3.23,210.53,8.8,74.05,5.9,148.03,12.27,222.37,12.38,79.71.11,159.26-5.19,238.8-9.84,90.4-5.28,184.89-15.46,274.65.44,89.83,15.91,173.82,50.43,266.22,51.37"/>
        <path class="cls-2" d="M1.04,445.38c88.98.21,177.95.42,266.93.62,78.42.18,156.72,2.11,234.83-6.15,69.54-7.36,138.57-19.28,208.42-23.69,36.27-2.29,72.61-1.12,108.78-5.02,36.83-3.97,73.21-11.29,109.36-19.24,69.31-15.25,138.52-33.93,209.63-38.46,71.06-4.53,143.29,5.18,213.76,13.38,75.14,8.74,150.65,19.07,226.43,19.22,83.31.17,166.6-8.59,249.54-15.46,90.71-7.51,190.05-24.08,278.97,1.86,85.11,24.83,158.03,74.15,248.95,78.39"/>
        <path class="cls-2" d="M1.14,485.73c88.98.21,177.95.42,266.93.62,78.07.18,155.76,2.46,233.25-8.82,68-9.9,135.13-25.58,203.66-31.7,36.16-3.23,72.4-2.2,108.38-7.6,37.29-5.6,73.85-15.36,110.02-25.83,69.35-20.08,138.61-44.58,210.92-51.37,71.66-6.74,146.15,7.24,216.84,17.85,76.06,11.42,153.14,25.63,230.3,25.77,86.7.16,173.64-11.82,259.73-20.74,51.86-5.38,103.78-10.67,155.86-13.35,44.75-2.3,85.3-.87,127.2,16.54,80.72,33.55,141.44,96.8,232.56,104.03"/>
        <path class="cls-2" d="M1.23,526.08c88.98.21,177.95.42,266.93.62,77.81.18,155.14,3.03,232.07-10.8,66.74-12,132.18-30.95,199.73-38.34,36.09-3.94,72.3-2.71,108.14-9.21,37.73-6.84,74.4-18.62,110.56-31.16,69.27-24.03,138.52-53.57,211.98-61.81,72.18-8.1,148.43,9,219.23,21.58,76.76,13.64,155.03,30.83,233.34,31,89.4.2,179.21-14.29,267.77-24.87,53.52-6.39,107.12-12.74,160.94-15.96,44.99-2.69,84.77-1.53,125.45,19.87,77.2,40.62,126.74,115.79,219.51,124.45"/>
        <path class="cls-2" d="M1.33,566.43c88.98.21,177.95.42,266.93.62,77.62.18,155.11,3.86,231.63-11.55,65.96-13.28,130.21-34.68,197.25-42.52,36.09-4.22,72.36-2.19,108.16-9.1,38.06-7.34,74.8-20.38,110.89-34.25,69.03-26.52,138.3-59.76,212.63-67.9,72.81-7.98,149.32,10.05,220.4,23.97,77.26,15.13,155.82,33.63,234.96,33.88,90.92.28,182.11-15.39,272.05-26.97,54.42-7.01,108.97-14.03,163.76-17.36,44.66-2.71,85.12-2.54,124.69,20.85,75.5,44.63,116.7,128.79,212.26,135.79"/>
        <path class="cls-2" d="M7,604.08c89.95-.82,179.88,1.2,269.82,2.25,79.08.93,158.81,4.77,236.58-12.05,66.12-14.31,130.26-37.43,197.78-44.95,34.3-3.82,68.79-1.4,102.87-7.54,37.58-6.77,73.85-19.53,109.34-33.34,69.72-27.13,139.27-61.58,214.58-69.58,74.39-7.9,152.34,10.58,224.93,24.76,74.44,14.55,150.43,32.25,226.68,32.23,89.44-.02,179.69-13.95,268.44-23.59,54.02-5.87,108.09-11.7,162.32-15.31,44.77-2.98,85.36-3.82,125.92,18.04,78.42,42.28,123.08,124.9,219,133.28"/>
        <path class="cls-2" d="M35.12,631c95-1.16,189.86,5.11,284.75,8.72,81.11,3.09,162.82,7.36,242.33-11.79,67.79-16.33,133.2-42.63,202.75-51.27,34.29-4.26,68.83-1.7,102.95-7.76,36.21-6.44,71.07-18.74,105.2-32.17,66.96-26.35,133.19-59.41,205.7-67.01,72.77-7.63,148.98,9.45,220.18,22.68,72.52,13.47,146.44,29.66,220.55,29.51,87.15-.18,174.85-8.21,261.85-12.95,52.57-2.87,105.14-5.7,157.73-8,44.92-1.97,85.2-2.43,126.97,16.55,81.01,36.81,136.28,108.34,230.02,116.4"/>
        <path class="cls-2" d="M79.53,650.16c102.5-.22,204.63,11.33,306.77,18.52,85.03,5.99,169.23,11.57,252.27-11.31,69.96-19.27,137.14-49.45,209.35-60.07,34.04-5,68.49-2.4,102.42-8.3,34.11-5.93,66.88-17.51,98.9-30.39,62.77-25.26,124.35-56.43,192.64-63.26,70.12-7.01,143.14,7.82,211.99,19.63,69.79,11.97,140.09,25.35,211.15,25.61,83.98.3,167.81.92,251.79,2.89,50.37,1.18,100.74,2.35,151.12,2.41,44.43.06,85.98-.42,128.6,14.08,84.91,28.9,152.72,86.86,245.52,92.37"/>
        <path class="cls-2" d="M131.96,665.51c111.2,1.51,221.71,18.73,332.18,29.98,90.09,9.17,176.49,16.57,264.14-10.72,72.38-22.54,141.48-56.98,216.63-70.04,33.71-5.85,67.87-3.3,101.53-8.98,31.64-5.34,61.96-16.06,91.52-28.31,57.91-24,114.1-53.04,177.53-58.93,66.92-6.22,136.15,5.96,202.1,16.15,66.53,10.28,132.71,20.29,200.16,21.19,80.48,1.08,160.25,11.56,240.06,21.18,47.73,5.75,95.55,11.39,143.56,14.25,43.96,2.62,87.22,1.41,130.48,11.15,89.39,20.12,169.59,62.96,262.99,65.09"/>
        <path class="cls-2" d="M184.11,680.99c119.83,3.39,238.63,26.19,357.31,41.42,49.1,6.3,98.83,12.89,148.4,13.67,43.76.69,86.14-9.6,127.28-23.8,74.71-25.78,145.64-64.37,223.65-79.88,33.4-6.64,67.13-4.16,100.57-9.61,29.18-4.76,57.05-14.61,84.13-26.23,53.1-22.79,103.83-49.61,162.47-54.62,63.7-5.44,129.24,4.22,192.25,12.75,63.15,8.55,125.51,15.4,189.26,16.89,77.37,1.82,153.43,22.03,228.46,39.17,45,10.28,90.23,20.33,136.11,25.85,44.01,5.3,88.25,2.81,132.29,8.27,94.05,11.66,184.36,39.4,279.93,38.49"/>
        <path class="cls-2" d="M227.73,700.55c127.1,4.7,252.94,32.55,378.45,51.18,51.27,7.61,103.47,15.9,155.39,16.92,44.58.87,87.79-11.09,129.26-26.54,76.62-28.54,149.04-70.79,229.48-88.29,33.19-7.22,66.5-4.76,99.79-10.02,27.08-4.28,52.85-13.34,77.82-24.46,49.03-21.84,94.95-46.58,149.56-50.93,61.03-4.86,123.64,2.9,184.2,9.96,60.19,7.02,119.6,11.59,180.15,13.37,75.41,2.22,148.08,30.49,218.79,54.09,42.53,14.19,85.52,28.04,129.83,35.54,44.24,7.49,89.03,3.76,133.68,5.95,98.15,4.82,195.35,19.02,293.83,16.47"/>
        <path class="cls-2" d="M254.5,728.11c131.7,4.61,262.21,36.69,391.93,57.59,52.35,8.43,105.77,17.61,158.91,18.65,45.02.87,88.3-11.69,129.9-27.94,77.8-30.38,151.1-75.42,233.18-93.97,33.09-7.48,66.25-4.87,99.48-10.05,25.69-4,50.09-12.48,73.65-23.31,46.37-21.31,88.92-44.38,140.94-48.47,59.44-4.67,120.56,2.28,179.68,8.31,58.27,5.94,115.98,9.73,174.52,11.28,75.2,1.99,144.63,34.8,212.86,63.17,40.75,16.94,82.26,33.44,125.8,41.65,44.1,8.33,89.67,4.39,134.33,4.74,100.75.8,201.44,4.43,302.2,2.97"/>
        <path class="cls-2" d="M259.12,766.26c132.86,3.7,264.56,37.79,395.27,59.27,50.31,8.27,101.21,16.58,152.26,18.26,45.19,1.49,88.58-10.57,130.44-26.6,78.42-30.04,151.93-75.24,234.25-94.54,34.62-8.12,69.64-5.23,104.44-11.11,25.51-4.31,49.69-13.02,73.12-23.8,45.43-20.91,87.65-42.9,138.52-46.86,58.26-4.53,117.81,1.68,175.68,8.33,59.92,6.88,118.82,10.28,179.04,12.42,75.21,2.68,144.57,35.92,212.89,64.14,40.71,16.82,82.19,32.89,125.76,40.54,44.29,7.77,90.46,4.65,135.26,4.75,99.54.23,199.08.47,298.61.7"/>
        <path class="cls-2" d="M259.25,806.62c130.09,3.72,258.78,37.22,386.71,58.47,49.54,8.23,99.65,16.37,149.93,18.02,44.54,1.46,87.99-10.14,129.59-25.06,76.89-27.58,149.47-68.89,229.71-86.66,34.64-7.67,69.68-5.14,104.45-10.92,27.11-4.51,53.01-13.56,78.21-24.32,48.67-20.78,95.14-43.73,148.81-47.86,59.02-4.54,118.29,2.87,176.36,12.89,60.57,10.45,118.87,16.27,180.21,18.66,73.37,2.87,143.51,30.4,212.29,53.51,41.02,13.78,82.51,26.77,125.37,33.44,44.6,6.94,90.25,4.52,135.25,4.63,99.54.23,199.08.47,298.61.7"/>
        <path class="cls-2" d="M259.33,846.97c125.52,3.52,249.44,36.31,372.79,57.14,48.02,8.11,96.6,16.01,145.37,17.57,43.51,1.39,86.2-8.38,127.41-21.53,74.64-23.82,145.71-59.99,223.06-74.91,34.98-6.75,70.42-4.25,105.45-9.94,29.71-4.83,58.32-14.32,86.31-25.17,53.87-20.89,106.38-44.98,164.79-49.49,60.51-4.67,119.94,5.95,178.37,20.6,61.06,15.32,119.05,26.58,182.11,28.67,71.73,2.38,141.67,20.4,211.31,36.2,41.22,9.35,82.67,18.01,124.75,22.46,44.83,4.73,90.16,3.12,135.18,3.22,99.54.23,199.08.47,298.61.7"/>
        <path class="cls-2" d="M259.38,887.32c119.98,3.21,238.19,35.22,355.99,55.54,90.23,15.56,174.82,24.11,264.16.07,72-19.38,141.27-49.74,215.32-61.13,35.55-5.47,71.49-2.95,107.01-8.56,32.86-5.2,64.71-15.16,96.02-26.21,60.1-21.22,119.5-46.46,183.76-51.46,62.55-4.87,122.32,10.11,181.07,29.95,60.88,20.56,119.53,39.2,184.39,40.6,70.4,1.52,140.11,8.41,210.14,15.39,184.84,18.43,372.15,10.9,557.7,11.33"/>
        <path class="cls-2" d="M259.43,927.67c199.35,5.04,394,101.03,594.16,58.13,69.35-14.87,136.76-39.09,207.5-47.13,36.21-4.11,72.56-1.58,108.67-7.16,36.1-5.58,71.25-15.99,105.92-27.29,66.47-21.65,132.71-47.96,203.04-53.5,64.85-5.11,124.9,14.55,183.83,39.42,60.06,25.36,120.24,52.02,186.68,52.6,69.53.61,139.44-3.6,208.94-5.71,185.64-5.63,371.14-4.29,556.86-3.86"/>
        <path class="cls-2" d="M259.49,968.02c193.36,4.7,376.54,91.88,571.74,60.16,67.01-10.89,132.76-29.39,200.63-34.73,36.78-2.89,73.35-.5,109.98-6.12,38.94-5.97,77-16.72,114.61-28.25,72.03-22.08,144.24-49.3,219.93-55.31,67.02-5.32,127.05,18.32,186.02,47.51,59.18,29.29,120.71,62.89,188.66,62.85,69.36-.05,139.52-13.82,207.92-23.92,183.9-27.16,370.71-17.11,556.14-16.68"/>
        <path class="cls-2" d="M259.6,1008.37c106,2.6,209.44,32.4,313.19,51.46,81.59,14.99,161.43,19.8,243.88,9.63,65.33-8.05,129.89-21.89,195.73-25.75,37-2.17,73.67-.19,110.48-5.81,40.94-6.24,81.02-17.27,120.7-28.94,75.91-22.33,152.31-50.29,231.74-56.61,68.66-5.46,128.07,20.39,187.02,52.67,59.01,32.31,120.36,69.59,189.96,69.51,70.01-.08,139.64-20.11,207.23-36.04,40.36-9.52,80.95-18.32,122.23-22.68,44.71-4.72,89.97-2.75,134.86-2.65,99.54.23,199.08.47,298.61.7"/>
        <path class="cls-2" d="M259.01,1049.11c104.63,3.2,206.36,31.97,308.8,50.8,81.85,15.05,161.17,18.82,243.89,9.78,64.76-7.08,128.97-18.76,194.08-22.56,36.74-2.14,73.18-.97,109.68-6.66,41.58-6.48,82.39-17.36,122.86-28.7,77.43-21.7,155.43-48.83,235.99-55.92,68.84-6.05,127.73,20.48,186.46,53.41,59.62,33.43,119.82,70.21,190.38,70.84,70.76.63,139.34-20.89,206.93-39.12,40.12-10.82,80.6-20.72,122.04-24.77,44.58-4.36,90.09-1.95,134.82-1.84,99.48.26,198.96.52,298.44.78"/>
        <path class="cls-2" d="M240.03,1098.67c100.73,3.94,198.68,29.03,297.63,46.09,80.99,13.96,159.8,18.01,241.49,8.59,65.31-7.54,130-20.04,195.71-24.01,36.65-2.21,72.87-1.73,109.35-6.81,42.05-5.86,83.64-14.74,125.07-23.93,79.45-17.63,159.13-38.95,240.4-46.32,68.27-6.19,128.35,20.09,187.72,50.84,60.54,31.36,122.44,66.66,192.57,67.53,70.58.87,139.22-20.85,206.63-39.01,40.06-10.79,80.49-20.66,121.88-24.68,44.52-4.32,89.97-1.89,134.65-1.74,99.35.32,198.7.65,298.05.97"/>
        <path class="cls-2" d="M201.38,1157.55c93.81,3.2,185.31,23.44,277.84,37.36,79.06,11.89,156.51,15.01,235.94,5.07,66.35-8.31,132-21.97,198.83-26.41,80.43-5.35,159.39-10.02,239.44-21.11,82.51-11.43,165.11-25.02,248.32-30.15,68.8-4.24,129.58,18.47,191.27,46.59,62.61,28.54,126.54,60.63,196.93,61.29,70.58.66,139-20.79,206.44-38.94,40.03-10.77,80.42-20.61,121.77-24.61,44.48-4.3,89.9-1.84,134.54-1.68,99.27.36,198.53.73,297.8,1.09"/>
        <path class="cls-2" d="M151.35,1221.83c162.23,3.35,318.89,48.77,481.8,26.49,67.71-9.26,134.61-24.26,202.87-29.36,81.72-6.11,164.43-4.8,246.35-8.63,86.05-4.02,172.14-8.84,258.28-10.27,69.84-1.16,131.47,16.35,196.16,41.35,65.26,25.22,131.39,53.18,202.57,53.39,70.69.21,138.76-20.74,206.35-38.93,40.01-10.76,80.39-20.59,121.73-24.57,44.47-4.28,89.87-1.82,134.49-1.65,99.23.38,198.46.76,297.69,1.14"/>
        <path class="cls-2" d="M98.23,1287.56c150.16.53,298.33,31.79,448.33,9.52,69.18-10.27,137.45-26.64,207.26-32.46,83.91-6.99,169.86,1.16,253.83,4.56,89.6,3.62,179.19,7.74,268.82,10.43,70.75,2.12,134.01,14.28,201.45,35.8,67.97,21.7,136.33,45.39,208.56,45.09,70.83-.29,138.58-20.73,206.36-38.96,40.02-10.76,80.41-20.59,121.75-24.56,44.48-4.27,89.88-1.81,134.51-1.64,99.24.37,198.49.75,297.73,1.12"/>
        <path class="cls-2" d="M50.33,1350.81c139.11-1.53,280.36,16.11,418.48-5.8,70.58-11.2,140.15-28.85,211.45-35.3,86.45-7.82,174.79,6.5,260.59,16.27,92.68,10.56,185.36,22.99,278.47,29.08,34.07,2.23,67.85,2.08,101.69,7.36,35.3,5.51,69.98,14.28,104.51,23.31,70.28,18.38,140.73,38.32,214.01,37.63,70.97-.67,138.54-20.76,206.48-39.05,40.04-10.78,80.46-20.61,121.83-24.59,44.5-4.28,89.94-1.83,134.59-1.67,99.3.35,198.61.69,297.91,1.04"/>
        <path class="cls-2" d="M15.95,1407.66c62.22-.93,124.42-2.67,186.63-4.21,70.65-1.75,140.8-1.01,210.75-12.63,71.72-11.91,142.35-30.62,214.87-37.49,88.66-8.4,178.19,9.76,265.35,24.34,94.81,15.86,189.82,35.21,285.77,42.81,34.22,2.71,68.35,2.17,102.48,6.66,35.99,4.74,71.54,12.27,106.97,20.01,71.83,15.7,144.01,33.07,218.01,32.28,71.05-.76,138.67-20.86,206.71-39.18,40.09-10.8,80.56-20.65,121.97-24.64,44.55-4.29,90.04-1.87,134.74-1.73,99.41.29,198.82.59,298.23.88"/>
        <path class="cls-2" d="M3.37,1454.18c60.06-.13,119.57-4.62,179.48-7.81,70.67-3.76,140.52-1.28,210.63-13.14,72.39-12.25,143.66-31.53,216.9-38.5,89.86-8.55,179.02,9.68,266.9,26.67,95.46,18.46,191.67,42.19,288.96,48.49,71.52,4.63,139.85,10.89,210.42,24.68,72.26,14.12,145.58,30.78,219.61,30.23,71-.52,139.04-21.08,207.02-39.27,40.17-10.75,80.7-20.57,122.17-24.63,44.61-4.37,90.13-2,134.89-1.9,99.54.23,199.08.47,298.61.7"/>
        <path class="cls-2" d="M3.39,1494.53c61.91-.25,123.45-4.37,185.25-7.26,70.97-3.32,141.14-1.79,211.61-12.78,72.57-11.32,144.25-28.67,217.51-35.41,88.92-8.18,177.28,9.19,264.47,25.08,93.65,17.07,187.73,38.39,282.89,44.97,71.25,4.93,140.14,10.95,210.62,23.54,72.05,12.87,145.73,28.92,219.28,28.15,70.73-.74,139.62-20.09,207.86-36.59,40.48-9.79,81.24-18.76,122.75-22.77,44.66-4.32,90.02-2.21,134.83-2.11,99.54.23,199.08.47,298.61.7"/>
        <path class="cls-2" d="M3.48,1534.88c65.89-.23,131.57-3.7,197.4-6.08,72.2-2.61,143.83-1.42,215.64-10.86,72.86-9.58,145.09-24.2,218.44-29.9,86.55-6.73,172.32,7.62,257.55,21.45,89.89,14.59,180.06,32.61,271.11,38.16,70.68,4.31,139.71,9.44,209.85,20.07,72.1,10.93,145.43,24.51,218.62,23.83,70.87-.66,140.52-17.01,209.64-30.9,86.82-17.45,170.49-21.14,258.82-20.93,99.54.23,199.08.47,298.61.7"/>
        <path class="cls-2" d="M3.63,1575.24c71.19-.1,142.27-2.77,213.42-4.54,74.01-1.84,147.74-.61,221.52-8,73.21-7.34,146.03-18.73,219.54-22.92,83.22-4.74,165.55,5.49,247.9,16.57,84.97,11.43,170.14,25.55,255.9,29.37,69.97,3.12,138.86,6.96,208.5,15.19,72.2,8.53,144.92,18.59,217.77,18.18,71.29-.39,141.72-12.73,211.99-23.42,184-27.99,373.5-15.34,559.1-14.91"/>
        <path class="cls-2" d="M3.8,1615.6c76.96.09,153.88-1.73,230.83-2.86,76.07-1.11,152.05.29,228.01-4.81,73.57-4.93,146.95-12.93,220.67-15.45,79.46-2.72,158.26,3.3,237.27,11.24,79.65,8,159.42,17.98,239.53,19.91,69.26,1.67,137.87,4.16,206.97,9.84,72.19,5.94,144.36,12.18,216.86,12.13,71.86-.06,143.13-8.07,214.52-15.34,185.74-18.93,374.43-9.59,560.91-9.16"/>
        <path class="cls-2" d="M3.96,1655.96c160.06.53,321.1,2.61,481.05-3.17,150.27-5.44,298.81-11.68,449.11-2.19,143.36,9.05,286.5,9.16,429.89,16.07,144.92,6.99,288.02,6.83,432.89-1.3,187.04-10.5,375.28-4.35,562.55-3.91"/>
        <path class="cls-2" d="M4.07,1696.31c165.89.68,331.99,2.06,497.87.08,147.56-1.76,295-4.58,442.56-.43,139.11,3.91,278.14,2.91,417.26,5.75,144.74,2.95,289.31,3.1,434.05.2,187.82-3.76,375.89-.54,563.74-.1"/>
        <path class="cls-2" d="M4.09,1736.66c597.12,1.69,1194.24,3.27,1791.35,4.18,188.06.29,376.13.89,564.19,1.33"/>
      </g>
    </g>
  </g>
</svg>